<svg width="18" height="15" viewBox="0 0 18 15" fill="none" xmlns="http://www.w3.org/2000/svg">
<path d="M17.7458 6.50498L11.0752 13.1756L9.75329 11.8537L6.94674 14.6399C6.77048 14.8297 6.55016 14.9246 6.28578 14.9246C6.02139 14.9246 5.79429 14.8297 5.60448 14.6399L4.24188 13.2773C4.06562 13.0875 3.97749 12.8638 3.97749 12.6062C3.97749 12.335 4.0724 12.1045 4.26222 11.9147C4.50626 11.6842 4.64862 11.3995 4.6893 11.0605C4.67574 10.83 4.58761 10.647 4.42491 10.5114C4.20798 10.3352 3.96393 10.247 3.69277 10.247C3.36737 10.247 3.08943 10.3691 2.85894 10.6131C2.68268 10.7894 2.46914 10.8741 2.21832 10.8673C1.96749 10.8606 1.74717 10.769 1.55735 10.5928L0.296441 9.31153C0.106626 9.12171 0.0117188 8.898 0.0117188 8.6404C0.0117188 8.38279 0.106626 8.15908 0.296441 7.96926L7.73989 0.525811C7.92971 0.335997 8.15342 0.24109 8.41103 0.24109C8.66863 0.24109 8.89234 0.335997 9.08216 0.525811L11.0752 2.51887L12.4175 1.17661L17.7458 6.50498ZM6.27561 12.6468L12.3971 6.50498L8.41103 2.51887L2.2895 8.6404L2.35051 8.70141C2.78437 8.45736 3.25213 8.33534 3.75378 8.33534C4.07918 8.33534 4.43847 8.41669 4.83166 8.57938C5.22485 8.74208 5.52991 8.93868 5.74684 9.16917C5.97733 9.3861 6.17392 9.68099 6.33662 10.0538C6.49932 10.4267 6.58067 10.769 6.58067 11.0809C6.56711 11.5961 6.42475 12.0774 6.15358 12.5248L6.27561 12.6468Z" fill="white"/>
</svg>
